<svg width="11" height="14" viewBox="0 0 11 14" fill="none" xmlns="http://www.w3.org/2000/svg">
    <path d="M0.291193 14V0.909091H5.30256C6.24858 0.909091 7.0348 1.05824 7.66122 1.35653C8.2919 1.65057 8.76278 2.05327 9.07386 2.56463C9.3892 3.07599 9.54688 3.65554 9.54688 4.30327C9.54688 4.83594 9.4446 5.2919 9.24006 5.67116C9.03551 6.04616 8.76065 6.35085 8.41548 6.58523C8.07031 6.8196 7.68466 6.98793 7.25852 7.0902V7.21804C7.72301 7.24361 8.16832 7.38636 8.59446 7.64631C9.02486 7.90199 9.37642 8.2642 9.64915 8.73295C9.92188 9.2017 10.0582 9.76847 10.0582 10.4332C10.0582 11.1108 9.89418 11.7202 9.56605 12.2614C9.23793 12.7983 8.74361 13.2223 8.0831 13.5334C7.42259 13.8445 6.59162 14 5.5902 14H0.291193ZM2.66264 12.0185H5.21307C6.07386 12.0185 6.69389 11.8544 7.07315 11.5263C7.45668 11.1939 7.64844 10.7678 7.64844 10.2479C7.64844 9.86009 7.55256 9.51065 7.3608 9.19957C7.16903 8.88423 6.89631 8.63707 6.54261 8.4581C6.18892 8.27486 5.76705 8.18324 5.27699 8.18324H2.66264V12.0185ZM2.66264 6.47656H5.00852C5.41761 6.47656 5.78622 6.40199 6.11435 6.25284C6.44247 6.09943 6.70028 5.88423 6.88778 5.60724C7.07955 5.32599 7.17543 4.99361 7.17543 4.61009C7.17543 4.10298 6.99645 3.68537 6.63849 3.35724C6.2848 3.02912 5.75852 2.86506 5.05966 2.86506H2.66264V6.47656Z" fill="black" fill-opacity="0.81"/>
    </svg>
    