<svg width="36" height="15" viewBox="0 0 36 15" fill="none" xmlns="http://www.w3.org/2000/svg">
    <path d="M0.355114 14V12.8494L4.67614 8.11932C5.18324 7.56534 5.60085 7.08381 5.92898 6.67472C6.2571 6.26136 6.5 5.87358 6.65767 5.51136C6.8196 5.14489 6.90057 4.76136 6.90057 4.3608C6.90057 3.90057 6.78977 3.50213 6.56818 3.16548C6.35085 2.82883 6.05256 2.56889 5.6733 2.38565C5.29403 2.20241 4.8679 2.1108 4.39489 2.1108C3.89205 2.1108 3.45312 2.2152 3.07812 2.42401C2.70739 2.62855 2.41974 2.91619 2.2152 3.28693C2.01491 3.65767 1.91477 4.09233 1.91477 4.59091H0.40625C0.40625 3.82386 0.583097 3.15057 0.93679 2.57102C1.29048 1.99148 1.77202 1.53977 2.38139 1.21591C2.99503 0.892045 3.68324 0.730113 4.44602 0.730113C5.21307 0.730113 5.89276 0.892045 6.48509 1.21591C7.07742 1.53977 7.5419 1.97656 7.87855 2.52628C8.2152 3.07599 8.38352 3.6875 8.38352 4.3608C8.38352 4.84233 8.29616 5.31321 8.12145 5.77344C7.95099 6.2294 7.6527 6.73864 7.22656 7.30114C6.80469 7.85937 6.21875 8.54119 5.46875 9.34659L2.52841 12.4915V12.5938H8.61364V14H0.355114ZM15.5234 14.179C14.5604 14.179 13.7401 13.9169 13.0625 13.3928C12.3849 12.8643 11.8672 12.0994 11.5092 11.098C11.1513 10.0923 10.9723 8.87784 10.9723 7.45455C10.9723 6.03977 11.1513 4.83168 11.5092 3.83026C11.8714 2.82457 12.3913 2.05753 13.0689 1.52912C13.7507 0.996448 14.5689 0.730113 15.5234 0.730113C16.478 0.730113 17.294 0.996448 17.9716 1.52912C18.6534 2.05753 19.1733 2.82457 19.5312 3.83026C19.8935 4.83168 20.0746 6.03977 20.0746 7.45455C20.0746 8.87784 19.8956 10.0923 19.5376 11.098C19.1797 12.0994 18.6619 12.8643 17.9844 13.3928C17.3068 13.9169 16.4865 14.179 15.5234 14.179ZM15.5234 12.7727C16.478 12.7727 17.2195 12.3125 17.7479 11.392C18.2763 10.4716 18.5405 9.15909 18.5405 7.45455C18.5405 6.32102 18.419 5.35582 18.1761 4.55895C17.9375 3.76207 17.5923 3.15483 17.1406 2.73722C16.6932 2.3196 16.1541 2.1108 15.5234 2.1108C14.5774 2.1108 13.8381 2.57741 13.3054 3.51065C12.7727 4.43963 12.5064 5.75426 12.5064 7.45455C12.5064 8.58807 12.6257 9.55114 12.8643 10.3438C13.103 11.1364 13.446 11.7393 13.8935 12.1527C14.3452 12.5661 14.8885 12.7727 15.5234 12.7727Z" fill="black"/>
    <path d="M31.5 12L35.3971 6.75H27.6029L31.5 12Z" fill="#332018"/>
    <path d="M0.355114 14V12.8494L4.67614 8.11932C5.18324 7.56534 5.60085 7.08381 5.92898 6.67472C6.2571 6.26136 6.5 5.87358 6.65767 5.51136C6.8196 5.14489 6.90057 4.76136 6.90057 4.3608C6.90057 3.90057 6.78977 3.50213 6.56818 3.16548C6.35085 2.82883 6.05256 2.56889 5.6733 2.38565C5.29403 2.20241 4.8679 2.1108 4.39489 2.1108C3.89205 2.1108 3.45312 2.2152 3.07812 2.42401C2.70739 2.62855 2.41974 2.91619 2.2152 3.28693C2.01491 3.65767 1.91477 4.09233 1.91477 4.59091H0.40625C0.40625 3.82386 0.583097 3.15057 0.93679 2.57102C1.29048 1.99148 1.77202 1.53977 2.38139 1.21591C2.99503 0.892045 3.68324 0.730113 4.44602 0.730113C5.21307 0.730113 5.89276 0.892045 6.48509 1.21591C7.07742 1.53977 7.5419 1.97656 7.87855 2.52628C8.2152 3.07599 8.38352 3.6875 8.38352 4.3608C8.38352 4.84233 8.29616 5.31321 8.12145 5.77344C7.95099 6.2294 7.6527 6.73864 7.22656 7.30114C6.80469 7.85937 6.21875 8.54119 5.46875 9.34659L2.52841 12.4915V12.5938H8.61364V14H0.355114ZM15.5234 14.179C14.5604 14.179 13.7401 13.9169 13.0625 13.3928C12.3849 12.8643 11.8672 12.0994 11.5092 11.098C11.1513 10.0923 10.9723 8.87784 10.9723 7.45455C10.9723 6.03977 11.1513 4.83168 11.5092 3.83026C11.8714 2.82457 12.3913 2.05753 13.0689 1.52912C13.7507 0.996448 14.5689 0.730113 15.5234 0.730113C16.478 0.730113 17.294 0.996448 17.9716 1.52912C18.6534 2.05753 19.1733 2.82457 19.5312 3.83026C19.8935 4.83168 20.0746 6.03977 20.0746 7.45455C20.0746 8.87784 19.8956 10.0923 19.5376 11.098C19.1797 12.0994 18.6619 12.8643 17.9844 13.3928C17.3068 13.9169 16.4865 14.179 15.5234 14.179ZM15.5234 12.7727C16.478 12.7727 17.2195 12.3125 17.7479 11.392C18.2763 10.4716 18.5405 9.15909 18.5405 7.45455C18.5405 6.32102 18.419 5.35582 18.1761 4.55895C17.9375 3.76207 17.5923 3.15483 17.1406 2.73722C16.6932 2.3196 16.1541 2.1108 15.5234 2.1108C14.5774 2.1108 13.8381 2.57741 13.3054 3.51065C12.7727 4.43963 12.5064 5.75426 12.5064 7.45455C12.5064 8.58807 12.6257 9.55114 12.8643 10.3438C13.103 11.1364 13.446 11.7393 13.8935 12.1527C14.3452 12.5661 14.8885 12.7727 15.5234 12.7727Z" fill="black"/>
    <path d="M31.5 12L35.3971 6.75H27.6029L31.5 12Z" fill="#332018"/>
    </svg>
    