<svg width="59" height="15" viewBox="0 0 59 15" fill="none" xmlns="http://www.w3.org/2000/svg">
    <path d="M2.17045 0.909091V14H0.585227V0.909091H2.17045ZM6.65288 8.09375V14H5.14435V4.18182H6.60174V5.71591H6.72958C6.95969 5.21733 7.30913 4.81676 7.77788 4.5142C8.24663 4.20739 8.85174 4.05398 9.59322 4.05398C10.258 4.05398 10.8397 4.19034 11.3382 4.46307C11.8368 4.73153 12.2246 5.14062 12.5016 5.69034C12.7786 6.2358 12.9171 6.92614 12.9171 7.76136V14H11.4086V7.86364C11.4086 7.09233 11.2083 6.49148 10.8077 6.06108C10.4071 5.62642 9.85742 5.40909 9.15856 5.40909C8.67702 5.40909 8.24663 5.51349 7.86737 5.7223C7.49237 5.93111 7.1962 6.2358 6.97887 6.63636C6.76154 7.03693 6.65288 7.52273 6.65288 8.09375ZM19.9435 4.18182V5.46023H14.8555V4.18182H19.9435ZM16.3384 1.82955H17.8469V11.1875C17.8469 11.6136 17.9087 11.9332 18.0323 12.1463C18.1602 12.3551 18.3221 12.4957 18.5181 12.5682C18.7184 12.6364 18.9293 12.6705 19.1509 12.6705C19.3171 12.6705 19.4535 12.6619 19.56 12.6449C19.6665 12.6236 19.7518 12.6065 19.8157 12.5938L20.1225 13.9489C20.0202 13.9872 19.8775 14.0256 19.6942 14.0639C19.511 14.1065 19.2788 14.1278 18.9975 14.1278C18.5714 14.1278 18.1538 14.0362 17.7447 13.853C17.3398 13.6697 17.0032 13.3906 16.7347 13.0156C16.4705 12.6406 16.3384 12.1676 16.3384 11.5966V1.82955ZM26.2237 14.2045C25.2777 14.2045 24.4616 13.9957 23.7756 13.5781C23.0938 13.1562 22.5675 12.5682 22.1967 11.8139C21.8303 11.0554 21.647 10.1733 21.647 9.16761C21.647 8.16193 21.8303 7.27557 22.1967 6.50852C22.5675 5.73722 23.0831 5.13636 23.7436 4.70597C24.4084 4.27131 25.1839 4.05398 26.0703 4.05398C26.5817 4.05398 27.0866 4.1392 27.5852 4.30966C28.0838 4.48011 28.5376 4.7571 28.9467 5.14062C29.3558 5.51989 29.6818 6.02273 29.9247 6.64915C30.1676 7.27557 30.2891 8.04687 30.2891 8.96307V9.60227H22.7209V8.2983H28.755C28.755 7.74432 28.6442 7.25 28.4226 6.81534C28.2053 6.38068 27.8942 6.03764 27.4893 5.78622C27.0888 5.5348 26.6158 5.40909 26.0703 5.40909C25.4695 5.40909 24.9496 5.55824 24.5107 5.85653C24.076 6.15057 23.7415 6.53409 23.5071 7.0071C23.2727 7.48011 23.1555 7.98722 23.1555 8.52841V9.39773C23.1555 10.1392 23.2834 10.7678 23.5391 11.2834C23.799 11.7947 24.1591 12.1847 24.6193 12.4531C25.0795 12.7173 25.6143 12.8494 26.2237 12.8494C26.62 12.8494 26.978 12.794 27.2976 12.6832C27.6214 12.5682 27.9006 12.3977 28.1349 12.1719C28.3693 11.9418 28.5504 11.6562 28.6783 11.3153L30.1357 11.7244C29.9822 12.2188 29.7244 12.6534 29.3622 13.0284C29 13.3991 28.5526 13.6889 28.0199 13.8977C27.4872 14.1023 26.8885 14.2045 26.2237 14.2045ZM32.5838 14V4.18182H34.0412V5.66477H34.1435C34.3224 5.17898 34.6463 4.7848 35.1151 4.48224C35.5838 4.17969 36.1122 4.02841 36.7003 4.02841C36.8111 4.02841 36.9496 4.03054 37.1158 4.0348C37.282 4.03906 37.4077 4.04545 37.4929 4.05398V5.58807C37.4418 5.57528 37.3246 5.55611 37.1413 5.53054C36.9624 5.50071 36.7727 5.4858 36.5724 5.4858C36.0952 5.4858 35.669 5.58594 35.294 5.78622C34.9233 5.98224 34.6293 6.25497 34.4119 6.6044C34.1989 6.94957 34.0923 7.34375 34.0923 7.78693V14H32.5838Z" fill="black" fill-opacity="0.85"/>
    <path d="M54.5 12L58.3971 6.75H50.6029L54.5 12Z" fill="#332018"/>
    <path d="M2.17045 0.909091V14H0.585227V0.909091H2.17045ZM6.65288 8.09375V14H5.14435V4.18182H6.60174V5.71591H6.72958C6.95969 5.21733 7.30913 4.81676 7.77788 4.5142C8.24663 4.20739 8.85174 4.05398 9.59322 4.05398C10.258 4.05398 10.8397 4.19034 11.3382 4.46307C11.8368 4.73153 12.2246 5.14062 12.5016 5.69034C12.7786 6.2358 12.9171 6.92614 12.9171 7.76136V14H11.4086V7.86364C11.4086 7.09233 11.2083 6.49148 10.8077 6.06108C10.4071 5.62642 9.85742 5.40909 9.15856 5.40909C8.67702 5.40909 8.24663 5.51349 7.86737 5.7223C7.49237 5.93111 7.1962 6.2358 6.97887 6.63636C6.76154 7.03693 6.65288 7.52273 6.65288 8.09375ZM19.9435 4.18182V5.46023H14.8555V4.18182H19.9435ZM16.3384 1.82955H17.8469V11.1875C17.8469 11.6136 17.9087 11.9332 18.0323 12.1463C18.1602 12.3551 18.3221 12.4957 18.5181 12.5682C18.7184 12.6364 18.9293 12.6705 19.1509 12.6705C19.3171 12.6705 19.4535 12.6619 19.56 12.6449C19.6665 12.6236 19.7518 12.6065 19.8157 12.5938L20.1225 13.9489C20.0202 13.9872 19.8775 14.0256 19.6942 14.0639C19.511 14.1065 19.2788 14.1278 18.9975 14.1278C18.5714 14.1278 18.1538 14.0362 17.7447 13.853C17.3398 13.6697 17.0032 13.3906 16.7347 13.0156C16.4705 12.6406 16.3384 12.1676 16.3384 11.5966V1.82955ZM26.2237 14.2045C25.2777 14.2045 24.4616 13.9957 23.7756 13.5781C23.0938 13.1562 22.5675 12.5682 22.1967 11.8139C21.8303 11.0554 21.647 10.1733 21.647 9.16761C21.647 8.16193 21.8303 7.27557 22.1967 6.50852C22.5675 5.73722 23.0831 5.13636 23.7436 4.70597C24.4084 4.27131 25.1839 4.05398 26.0703 4.05398C26.5817 4.05398 27.0866 4.1392 27.5852 4.30966C28.0838 4.48011 28.5376 4.7571 28.9467 5.14062C29.3558 5.51989 29.6818 6.02273 29.9247 6.64915C30.1676 7.27557 30.2891 8.04687 30.2891 8.96307V9.60227H22.7209V8.2983H28.755C28.755 7.74432 28.6442 7.25 28.4226 6.81534C28.2053 6.38068 27.8942 6.03764 27.4893 5.78622C27.0888 5.5348 26.6158 5.40909 26.0703 5.40909C25.4695 5.40909 24.9496 5.55824 24.5107 5.85653C24.076 6.15057 23.7415 6.53409 23.5071 7.0071C23.2727 7.48011 23.1555 7.98722 23.1555 8.52841V9.39773C23.1555 10.1392 23.2834 10.7678 23.5391 11.2834C23.799 11.7947 24.1591 12.1847 24.6193 12.4531C25.0795 12.7173 25.6143 12.8494 26.2237 12.8494C26.62 12.8494 26.978 12.794 27.2976 12.6832C27.6214 12.5682 27.9006 12.3977 28.1349 12.1719C28.3693 11.9418 28.5504 11.6562 28.6783 11.3153L30.1357 11.7244C29.9822 12.2188 29.7244 12.6534 29.3622 13.0284C29 13.3991 28.5526 13.6889 28.0199 13.8977C27.4872 14.1023 26.8885 14.2045 26.2237 14.2045ZM32.5838 14V4.18182H34.0412V5.66477H34.1435C34.3224 5.17898 34.6463 4.7848 35.1151 4.48224C35.5838 4.17969 36.1122 4.02841 36.7003 4.02841C36.8111 4.02841 36.9496 4.03054 37.1158 4.0348C37.282 4.03906 37.4077 4.04545 37.4929 4.05398V5.58807C37.4418 5.57528 37.3246 5.55611 37.1413 5.53054C36.9624 5.50071 36.7727 5.4858 36.5724 5.4858C36.0952 5.4858 35.669 5.58594 35.294 5.78622C34.9233 5.98224 34.6293 6.25497 34.4119 6.6044C34.1989 6.94957 34.0923 7.34375 34.0923 7.78693V14H32.5838Z" fill="black" fill-opacity="0.85"/>
    </svg>
    