<svg width="9" height="13" viewBox="0 0 9 13" fill="none" xmlns="http://www.w3.org/2000/svg">
    <path d="M0.784 12.334H1.306C1.966 12.334 2.338 12.106 2.422 11.65L4.438 1.768C4.45 1.72 4.456 1.66 4.456 1.588C4.456 1.252 4.174 1.084 3.61 1.084H3.088L3.232 0.399999H8.866L8.722 1.084H8.2C7.864 1.084 7.606 1.138 7.426 1.246C7.258 1.354 7.144 1.528 7.084 1.768L5.068 11.65C5.056 11.686 5.05 11.74 5.05 11.812C5.05 11.992 5.116 12.124 5.248 12.208C5.392 12.292 5.614 12.334 5.914 12.334H6.418L6.31 13H0.676L0.784 12.334Z" fill="black" fill-opacity="0.81"/>
    </svg>
    