<svg width="14" height="19" viewBox="0 0 14 19" fill="none" xmlns="http://www.w3.org/2000/svg">
    <path d="M9.54332 0.909091H11.9148V9.46165C11.9148 10.3991 11.6932 11.2237 11.25 11.9354C10.8111 12.647 10.1932 13.2031 9.39631 13.6037C8.59943 14 7.66832 14.1982 6.60298 14.1982C5.53338 14.1982 4.60014 14 3.80327 13.6037C3.00639 13.2031 2.38849 12.647 1.94957 11.9354C1.51065 11.2237 1.29119 10.3991 1.29119 9.46165V0.909091H3.66264V9.26349C3.66264 9.80895 3.78196 10.2947 4.0206 10.7209C4.26349 11.147 4.6044 11.4815 5.04332 11.7244C5.48224 11.9631 6.00213 12.0824 6.60298 12.0824C7.20384 12.0824 7.72372 11.9631 8.16264 11.7244C8.60582 11.4815 8.94673 11.147 9.18537 10.7209C9.42401 10.2947 9.54332 9.80895 9.54332 9.26349V0.909091Z" fill="black" fill-opacity="0.81"/>
    <path d="M0 17.5795H13.206V18.8068H0V17.5795Z" fill="black" fill-opacity="0.81"/>
    </svg>
    